<svg xmlns="http://www.w3.org/2000/svg" viewBox="0 0 64 64" fill="none">
  <rect width="64" height="64" rx="16" fill="#5a7c7f" />
  <path
    d="M20.5 46C15.8056 46 12 42.4183 12 38C12 34.2084 14.8014 31.032 18.5705 30.2384C19.8895 24.2612 25.482 19.8125 32.1667 19.8125C39.8636 19.8125 46.1921 25.7091 46.5813 33.1283C49.839 34.4259 52 37.4556 52 40.9062C52 43.9574 50.3104 46.6326 47.7699 48.1016C46.4556 48.8615 44.9118 49.2617 43.3333 49.2617H20.5V46Z"
    fill="white"
  />
  <path
    d="M20.5 49.2617C14.701 49.2617 10 44.8533 10 39.418C10 35.0834 12.9984 31.3578 17.2829 30.0282C19.1142 23.6524 25.3405 18.9414 32.6667 18.9414C40.9966 18.9414 47.9338 25.0165 49.0339 32.8083C52.5449 34.511 55 37.9724 55 41.9531C55 47.5807 50.1345 52.1602 44.1667 52.1602H20.5C19.8096 52.1602 19.25 51.6346 19.25 50.986C19.25 50.3373 19.8096 49.8117 20.5 49.8117H44.1667C48.7307 49.8117 52.45 46.3108 52.45 41.9531C52.45 38.816 50.4627 36.1054 47.5046 34.8665L46.8264 34.5824L46.7775 33.8676C46.299 26.8815 40.1809 21.3672 32.6667 21.3672C26.1751 21.3672 20.6959 25.7007 19.2865 31.6703L19.0877 32.5125L18.193 32.6565C14.5559 33.2419 11.95 36.2174 11.95 39.418C11.95 43.5637 15.5339 46.9278 20.5 46.9278C21.1904 46.9278 21.75 47.4534 21.75 48.1021C21.75 48.7507 21.1904 49.2617 20.5 49.2617Z"
    fill="white"
  />
</svg>
